<svg xmlns="http://www.w3.org/2000/svg" viewBox="0 0 64 64" fill="none" aria-hidden="true">
  <rect width="64" height="64" rx="14" fill="#0a0a0a" />
  <!-- Simplified, bolder mark so it stays legible at tiny favicon sizes -->
  <g transform="translate(32 33) scale(1.32) translate(-32 -33)" stroke="#ffffff" fill="none">
    <!-- Folder -->
    <path
      d="M10 22.5V44.5C10 46.4 11.6 48 13.5 48H50.5C52.4 48 54 46.4 54 44.5V26.5C54 24.6 52.4 23 50.5 23H38.5L34.5 19H13.5C11.6 19 10 20.6 10 22.5Z"
      stroke-width="3.4"
      stroke-linejoin="round"
    />
    <!-- Flowy current the camera sits in -->
    <path
      d="M12 27 C18 23.5, 24 23.5, 30 27 S42 30.5, 50 27"
      stroke-width="3.4"
      stroke-linecap="round"
    />
    <!-- Camera body -->
    <rect x="22" y="31" width="20" height="13" rx="2.5" stroke-width="3.2" stroke-linejoin="round" />
    <!-- Lens -->
    <circle cx="32" cy="37.5" r="4.4" stroke-width="3.2" />
    <circle cx="32" cy="37.5" r="1.6" fill="#ffffff" stroke="none" />
  </g>
</svg>
